<svg width="9" height="9" viewBox="0 0 9 9" fill="none" xmlns="http://www.w3.org/2000/svg">
<path d="M4.16667 0C1.86667 0 0 1.86667 0 4.16667C0 6.46667 1.86667 8.33333 4.16667 8.33333C6.46667 8.33333 8.33333 6.46667 8.33333 4.16667C8.33333 1.86667 6.47083 0 4.16667 0ZM5.41667 5.09583L4.20833 5.79167C4.05833 5.87917 3.89167 5.92083 3.72917 5.92083C3.5625 5.92083 3.4 5.87917 3.25 5.79167C2.95 5.61667 2.77083 5.30833 2.77083 4.95833V3.5625C2.77083 3.21667 2.95 2.90417 3.25 2.72917C3.55 2.55417 3.90833 2.55417 4.2125 2.72917L5.42083 3.425C5.72083 3.6 5.9 3.90833 5.9 4.25833C5.9 4.60833 5.72083 4.92083 5.41667 5.09583Z" fill="white"/>
</svg>
